<svg xmlns="http://www.w3.org/2000/svg" version="1.1" xmlns:xlink="http://www.w3.org/1999/xlink" xmlns:svgjs="http://svgjs.dev/svgjs" width="2000" height="2000" viewBox="0 0 2000 2000"><g transform="matrix(1,0,0,1,0,0.00004869835015597346)"><svg viewBox="0 0 280 280" data-background-color="#ffffff" preserveAspectRatio="xMidYMid meet" height="2000" width="2000" xmlns="http://www.w3.org/2000/svg" xmlns:xlink="http://www.w3.org/1999/xlink"><g id="tight-bounds" transform="matrix(1,0,0,1,0,-0.000006817769019562547)"><svg viewBox="0 0 280 280" height="280" width="280"><g><svg viewBox="0 0 280 280" height="280" width="280"><g><svg viewBox="0 0 280 280" height="280" width="280"><g id="textblocktransform"><svg viewBox="0 0 280 280" height="280" width="280" id="textblock"><g><svg viewBox="0 0 280 280" height="280" width="280"><g transform="matrix(1,0,0,1,90.50252531694167,130.48240295569164)"><svg viewBox="0 0 98.99494936611666 19.035194088616723" height="19.035194088616723" width="98.99494936611666"><g><svg xmlns="http://www.w3.org/2000/svg" xmlns:xlink="http://www.w3.org/1999/xlink" version="1.1" x="0" y="0" viewBox="1.749 40.72209139980506 96.50200000000001 18.55583857259313" enable-background="new 0 0 100 100" xml:space="preserve" height="19.035194088616723" width="98.99494936611666" class="icon-xg-0" data-fill-palette-color="accent" id="xg-0"><path d="M46.245 44.189c-3.862-6.625-13.857-2.854-18.108 3.758C22.82 56.22 5.59 55.511 1.749 45.945c2.584 6.18 7.808 11.807 14.611 13.054 6.326 1.158 10.828-1.498 15.924-4.434 2.503-1.44 4.324-0.699 6.529-0.357 0.703 0.262 1.462 0.41 2.256 0.41 3.592 0 6.504-2.911 6.504-6.503C47.573 46.638 47.075 45.281 46.245 44.189z" fill="#ff7000" data-fill-palette-color="accent"></path><path d="M53.755 44.189c3.862-6.625 13.856-2.854 18.108 3.758 5.316 8.273 22.547 7.564 26.388-2.002C95.667 52.126 90.443 57.753 83.641 59c-6.326 1.159-10.828-1.498-15.925-4.433-2.503-1.441-4.323-0.701-6.528-0.358-0.703 0.262-1.463 0.411-2.256 0.411-3.593 0-6.505-2.912-6.505-6.504C52.427 46.638 52.925 45.281 53.755 44.189z" fill="#ff7000" data-fill-palette-color="accent"></path></svg></g></svg></g><g><path d="M28.446 109.504l-21.861-7.905-1.471 2.726-1.754-0.634 1.717-4.747c0.288-0.796 0.605-1.82 0.953-3.072v0c0.314-1.159 0.568-2.009 0.764-2.55v0c1.169-3.233 2.509-5.364 4.02-6.393 1.511-1.029 3.239-1.191 5.185-0.487v0c1.66 0.6 2.914 1.595 3.762 2.984 0.852 1.398 1.128 2.985 0.83 4.761v0c0.764-2.269 1.929-3.848 3.495-4.736 1.568-0.895 3.304-0.999 5.207-0.311v0c2.363 0.854 3.99 2.392 4.881 4.612 0.9 2.217 0.651 5.259-0.748 9.126v0c-0.306 0.846-0.635 1.64-0.989 2.385v0c-0.729 1.803-1.157 2.879-1.283 3.227v0l-1.693 4.682-1.725-0.624zM17.279 101.247c0.142-0.314 0.395-0.975 0.759-1.982v0l0.701-1.94c0.591-1.635 0.583-3.041-0.025-4.217-0.608-1.176-1.755-2.069-3.44-2.678v0c-1.641-0.594-2.997-0.606-4.068-0.037-1.064 0.571-1.964 1.874-2.699 3.907v0c-0.306 0.846-0.573 1.73-0.801 2.652v0l-0.201 0.761zM29.898 105.81c0.38-0.467 0.914-1.652 1.602-3.555v0c0.854-2.363 0.99-4.254 0.406-5.674-0.592-1.416-1.802-2.455-3.629-3.116v0c-1.803-0.652-3.283-0.663-4.439-0.033-1.156 0.63-2.106 1.974-2.849 4.031v0c-0.866 2.394-1.387 3.914-1.565 4.56v0z" fill="#ffffff" data-fill-palette-color="primary"></path><path d="M45.857 68.415c-1.746-1.569-2.247-3.593-1.504-6.071 0.738-2.483 2.28-5.084 4.626-7.804v0l-0.782-0.702c-0.87-0.782-1.64-1.305-2.31-1.57-0.665-0.259-1.316-0.267-1.954-0.022-0.643 0.24-1.34 0.778-2.091 1.615v0c-0.849 0.944-1.476 1.914-1.881 2.909-0.401 0.991-0.741 2.032-1.02 3.124v0l-2.069-0.606c0.01-0.427 0.142-1.112 0.396-2.058 0.249-0.95 0.625-1.967 1.129-3.052 0.504-1.085 1.14-2.055 1.91-2.911v0c1.18-1.313 2.299-2.192 3.356-2.637 1.048-0.445 2.121-0.476 3.219-0.095 1.097 0.382 2.315 1.173 3.652 2.376v0l8.918 8.015 1.472-1.638 1.224 1.1c-0.238 0.453-0.564 1.004-0.979 1.654-0.415 0.649-0.814 1.188-1.199 1.616v0c-0.468 0.521-0.863 0.802-1.184 0.843-0.325 0.045-0.758-0.175-1.3-0.661v0l-0.914-0.823c0.056 1.055-0.047 2.194-0.31 3.416-0.263 1.222-0.851 2.342-1.766 3.36v0c-1.198 1.333-2.576 2.094-4.133 2.285-1.558 0.191-3.06-0.363-4.506-1.663zM53.682 64.901c0.433-0.482 0.785-1.17 1.056-2.065 0.271-0.895 0.436-1.786 0.496-2.674v0l-4.78-4.296c-1.816 2.021-2.877 3.824-3.181 5.409-0.304 1.585 0.046 2.828 1.049 3.729v0c0.998 0.897 1.954 1.312 2.869 1.245 0.91-0.063 1.74-0.512 2.491-1.348z" fill="#ffffff" data-fill-palette-color="primary"></path><path d="M81.423 44.581l-0.861-1.62 2.376-1.51-7.423-13.958-2.698 0.671-0.95-1.786 4.236-3.017 0.07-0.037 1.044 0.209 0.317 0.595 1.272 2.626 0.097-0.051c0.023-0.492 0.162-1.187 0.417-2.087 0.259-0.894 0.705-1.828 1.341-2.802 0.641-0.977 1.487-1.745 2.537-2.305v0c0.444-0.236 0.838-0.374 1.184-0.415v0l1.965 3.695c-0.217-0.027-0.521 0-0.912 0.08-0.391 0.081-0.797 0.233-1.218 0.457v0c-1.827 0.972-3.222 2.432-4.184 4.382v0l6.319 11.882 4.325-1.963 0.843 1.585z" fill="#ffffff" data-fill-palette-color="primary"></path><path d="M111.245 3.025l-0.199-1.554 5.841-1.461 0.079-0.01 0.927 0.441 1.433 11.155c0.649-0.81 1.455-1.514 2.419-2.111 0.962-0.604 2.076-0.987 3.342-1.149v0c1.482-0.19 2.879-0.007 4.19 0.551 1.319 0.564 2.439 1.55 3.36 2.958 0.922 1.415 1.531 3.273 1.826 5.575v0c0.273 2.125 0.081 4.109-0.574 5.953-0.651 1.837-1.727 3.368-3.23 4.595-1.503 1.22-3.33 1.968-5.481 2.244v0c-1.705 0.219-3.28 0.255-4.726 0.107-1.453-0.153-2.348-0.348-2.684-0.585v0l-3.43-26.687zM123.901 11.168c-0.938 0.121-1.783 0.446-2.535 0.975-0.744 0.536-1.328 1.107-1.749 1.715v0l1.753 13.644c0.189 0.329 0.651 0.553 1.386 0.671 0.729 0.12 1.539 0.122 2.431 0.008v0c1.902-0.244 3.334-1.208 4.298-2.892 0.964-1.677 1.257-3.988 0.879-6.933v0c-0.34-2.643-1.099-4.555-2.277-5.736-1.184-1.174-2.58-1.658-4.186-1.452z" fill="#ffffff" data-fill-palette-color="primary"></path><path d="M168.729 32.748c-2.932-0.701-4.942-2.192-6.028-4.471-1.078-2.284-1.235-5.024-0.471-8.219v0c0.505-2.109 1.347-3.869 2.528-5.28 1.187-1.409 2.604-2.375 4.252-2.898 1.65-0.53 3.397-0.574 5.243-0.133v0c2.251 0.538 3.85 1.58 4.799 3.126 0.949 1.546 1.184 3.492 0.704 5.839v0c-0.354 1.479-0.71 2.584-1.068 3.313v0l-12.5-2.99c-0.529 2.409-0.435 4.475 0.282 6.196 0.717 1.721 2.056 2.817 4.017 3.286v0c0.971 0.232 2.025 0.301 3.163 0.206 1.139-0.101 2.056-0.324 2.75-0.668v0l0.311 1.767c-0.875 0.559-2.067 0.94-3.577 1.143-1.509 0.197-2.977 0.124-4.405-0.217zM166.686 19.125l8.719 2.085c0.194-0.497 0.354-1.01 0.48-1.537v0c0.358-1.58 0.324-2.904-0.101-3.97-0.426-1.06-1.33-1.756-2.713-2.087v0c-1.408-0.337-2.652-0.097-3.73 0.719-1.081 0.822-1.966 2.419-2.655 4.79z" fill="#ffffff" data-fill-palette-color="primary"></path><path d="M198.487 44.531l1.012-1.531 2.461 1.366 8.719-13.187-1.878-2.05 1.116-1.688 4.674 2.282 0.066 0.044 0.314 1.017-0.371 0.562-1.7 2.372 0.091 0.06c0.443-0.214 1.121-0.424 2.033-0.629 0.909-0.2 1.943-0.253 3.103-0.16 1.165 0.096 2.244 0.473 3.236 1.129v0c0.419 0.277 0.729 0.557 0.93 0.841v0l-2.308 3.491c-0.08-0.203-0.248-0.458-0.506-0.763-0.258-0.305-0.585-0.589-0.983-0.852v0c-1.726-1.141-3.676-1.669-5.848-1.584v0l-7.423 11.226 3.79 2.863-0.99 1.497z" fill="#ffffff" data-fill-palette-color="primary"></path><path d="M256.011 54.933l-11.163 8.278-1.58-1.897 10.204-9.429z" fill="#ffffff" data-fill-palette-color="primary"></path><path d="M252.042 99.17l-2.512 1.626c-0.263 0.362-0.397 0.973-0.402 1.833-0.003 0.866 0.147 1.719 0.451 2.558v0c0.484 1.337 1.095 2.23 1.834 2.68 0.746 0.447 1.575 0.506 2.489 0.175v0c0.634-0.229 1.112-0.628 1.435-1.194 0.329-0.569 0.544-1.276 0.646-2.122 0.108-0.848 0.178-2.033 0.21-3.557v0c0.025-2.048 0.36-3.66 1.003-4.835 0.65-1.177 1.749-2.046 3.297-2.606v0c1.032-0.373 2.046-0.389 3.042-0.046 0.996 0.343 1.908 0.979 2.737 1.91 0.829 0.931 1.485 2.064 1.969 3.401v0c0.389 1.076 0.646 2.048 0.771 2.916 0.131 0.867 0.205 1.578 0.224 2.134 0.01 0.552 0.022 0.917 0.037 1.094v0l-4.365 1.58-0.776-2.145 2.349-1.641c0.228-0.244 0.334-0.708 0.319-1.392-0.022-0.681-0.167-1.395-0.437-2.141v0c-0.382-1.057-0.926-1.82-1.63-2.289-0.7-0.478-1.448-0.573-2.244-0.285v0c-0.703 0.254-1.222 0.636-1.559 1.144-0.332 0.5-0.548 1.06-0.647 1.679-0.093 0.617-0.165 1.438-0.217 2.462v0l-0.023 0.81c-0.041 1.499-0.151 2.741-0.328 3.726-0.169 0.989-0.533 1.898-1.092 2.726-0.564 0.83-1.397 1.444-2.497 1.842v0c-1.735 0.628-3.362 0.454-4.882-0.522-1.514-0.978-2.695-2.639-3.544-4.982v0c-0.414-1.144-0.693-2.4-0.836-3.769-0.137-1.371-0.185-2.513-0.144-3.428v0l4.495-1.627z" fill="#ffffff" data-fill-palette-color="primary"></path><path d="M12.488 184.449l24.242-9.046-0.729-3.37 1.952-0.728 1.966 5.268c0.328 0.88 0.797 1.975 1.406 3.286v0c0.572 1.212 0.969 2.115 1.191 2.71v0c1.338 3.587 1.736 6.363 1.193 8.33-0.539 1.959-1.887 3.34-4.043 4.145v0c-1.846 0.689-3.631 0.748-5.354 0.177-1.723-0.571-3.1-1.716-4.129-3.434v0c0.987 2.476 1.135 4.658 0.443 6.546-0.686 1.886-2.079 3.221-4.18 4.005v0c-2.626 0.98-5.12 0.852-7.479-0.385-2.354-1.239-4.33-4.001-5.93-8.288v0c-0.349-0.935-0.647-1.847-0.894-2.736v0c-0.675-2.056-1.086-3.279-1.232-3.669v0l-1.934-5.184 1.914-0.715zM27.903 183.407c0.112 0.375 0.375 1.12 0.792 2.235v0l0.801 2.146c0.677 1.815 1.695 3.002 3.054 3.56 1.365 0.556 2.983 0.485 4.853-0.212v0c1.821-0.68 2.978-1.644 3.472-2.895 0.493-1.25 0.318-3.005-0.526-5.266v0c-0.349-0.935-0.757-1.877-1.223-2.825v0l-0.389-0.786zM13.91 188.629c0.011 0.673 0.41 2.063 1.196 4.169v0c0.98 2.626 2.23 4.33 3.749 5.111 1.526 0.779 3.301 0.79 5.327 0.034v0c2.001-0.747 3.265-1.804 3.791-3.172 0.521-1.366 0.354-3.192-0.498-5.477v0c-0.989-2.651-1.639-4.318-1.951-4.999v0z" fill="#ffffff" data-fill-palette-color="primary"></path><path d="M38.776 226.292c1.923-1.768 4.218-2.109 6.887-1.024 2.673 1.081 5.395 3.064 8.166 5.951v0l0.854-0.785c0.959-0.882 1.619-1.677 1.981-2.388 0.367-0.715 0.446-1.439 0.239-2.173-0.203-0.738-0.727-1.568-1.573-2.487v0c-0.958-1.042-1.965-1.84-3.023-2.394-1.053-0.55-2.17-1.036-3.35-1.46v0l0.886-2.23c0.466 0.057 1.212 0.273 2.24 0.648 1.023 0.38 2.11 0.907 3.261 1.583 1.151 0.675 2.158 1.483 3.022 2.422v0c1.334 1.45 2.19 2.783 2.569 3.996 0.38 1.214 0.301 2.408-0.234 3.584-0.545 1.175-1.553 2.438-3.023 3.79v0l-9.827 9.035 1.665 1.81-1.351 1.242c-0.478-0.315-1.055-0.737-1.729-1.266-0.675-0.529-1.23-1.03-1.664-1.501v0c-0.524-0.569-0.792-1.037-0.805-1.403-0.018-0.361 0.27-0.815 0.865-1.36v0l1.007-0.927c-1.172-0.054-2.421-0.289-3.746-0.704-1.33-0.421-2.512-1.193-3.546-2.318v0c-1.351-1.47-2.049-3.078-2.093-4.826-0.044-1.747 0.73-3.352 2.322-4.815zM41.843 235.341c0.488 0.531 1.212 0.991 2.174 1.383 0.966 0.396 1.939 0.673 2.92 0.832v0l5.264-4.84c-2.05-2.229-3.936-3.597-5.661-4.105-1.724-0.498-3.137-0.242-4.237 0.77v0c-1.105 1.016-1.669 2.033-1.693 3.052-0.024 1.019 0.387 1.989 1.233 2.908z" fill="#ffffff" data-fill-palette-color="primary"></path><path d="M71.598 262.517l0.944-1.812 2.885 1.224 8.13-15.603-2.308-2.053 1.036-1.987 5.44 1.985 0.071 0.036 0.461 1.09-0.344 0.66-1.604 2.821 0.105 0.055c0.463-0.288 1.187-0.597 2.172-0.926 0.984-0.33 2.126-0.51 3.424-0.542 1.296-0.026 2.536 0.27 3.721 0.887v0c0.493 0.257 0.865 0.529 1.117 0.818v0l-2.154 4.133c-0.106-0.212-0.32-0.473-0.643-0.782-0.323-0.31-0.719-0.587-1.189-0.832v0c-2.04-1.063-4.261-1.423-6.662-1.078v0l-6.92 13.281 4.532 2.741-0.921 1.768z" fill="#ffffff" data-fill-palette-color="primary"></path><path d="M115.604 246.742l0.211-1.733 6.702 0.016 0.078 0.01 0.88 0.736-1.513 12.435c0.924-0.7 1.99-1.243 3.195-1.63 1.205-0.38 2.51-0.484 3.915-0.313v0c1.647 0.2 3.105 0.781 4.374 1.741 1.268 0.967 2.206 2.34 2.816 4.119 0.603 1.778 0.749 3.947 0.437 6.508v0c-0.288 2.369-1.038 4.456-2.251 6.26-1.213 1.811-2.793 3.17-4.742 4.078-1.955 0.908-4.131 1.216-6.526 0.925v0c-1.903-0.232-3.617-0.627-5.141-1.185-1.523-0.565-2.43-1.018-2.722-1.36v0l3.619-29.742zM127.022 258.991c-1.05-0.128-2.051-0.006-3.002 0.364-0.951 0.371-1.739 0.827-2.365 1.371v0l-1.849 15.201c0.118 0.401 0.553 0.767 1.305 1.097 0.759 0.332 1.634 0.558 2.625 0.679v0c2.12 0.258 3.93-0.388 5.431-1.936 1.501-1.556 2.451-3.971 2.849-7.246v0c0.359-2.947 0.062-5.218-0.889-6.812-0.952-1.594-2.32-2.5-4.105-2.718z" fill="#ffffff" data-fill-palette-color="primary"></path><path d="M174.97 276.597c-3.262 0.799-6.008 0.344-8.237-1.363-2.237-1.712-3.79-4.344-4.659-7.895v0c-0.574-2.344-0.632-4.515-0.176-6.512 0.451-1.996 1.36-3.675 2.729-5.038 1.362-1.361 3.067-2.293 5.115-2.795v0c2.505-0.613 4.623-0.397 6.357 0.649 1.727 1.048 2.946 2.856 3.656 5.425v0c0.403 1.644 0.616 2.919 0.64 3.826v0l-13.9 3.403c0.704 2.653 1.85 4.649 3.437 5.989 1.581 1.342 3.463 1.745 5.647 1.211v0c1.079-0.264 2.155-0.735 3.228-1.413 1.079-0.679 1.877-1.368 2.393-2.066v0l1.198 1.595c-0.579 0.999-1.567 1.983-2.964 2.952-1.39 0.967-2.878 1.644-4.464 2.032zM166.008 264.14l9.7-2.376c-0.061-0.584-0.164-1.171-0.309-1.762v0c-0.455-1.747-1.162-3.037-2.122-3.871-0.96-0.834-2.207-1.063-3.742-0.687v0c-1.567 0.384-2.674 1.254-3.322 2.611-0.654 1.358-0.723 3.386-0.205 6.085z" fill="#ffffff" data-fill-palette-color="primary"></path><path d="M210.305 261.39l-1.131-1.701 2.465-1.936-9.739-14.653-2.911 1.03-1.241-1.866 4.365-3.807 0.066-0.044 1.177 0.123 0.412 0.62 1.696 2.766 0.099-0.065c-0.029-0.545 0.05-1.328 0.237-2.349 0.187-1.021 0.58-2.108 1.18-3.261 0.603-1.147 1.461-2.09 2.573-2.829v0c0.463-0.307 0.881-0.502 1.255-0.584v0l2.58 3.882c-0.237-0.009-0.569 0.052-0.996 0.185-0.427 0.133-0.861 0.346-1.302 0.639v0c-1.916 1.274-3.303 3.045-4.161 5.314v0l8.289 12.472 4.589-2.645 1.104 1.66z" fill="#ffffff" data-fill-palette-color="primary"></path><path d="M222.715 204.804l11.223 10.627-1.773 2.098-12.299-9.354z" fill="#ffffff" data-fill-palette-color="primary"></path><path d="M260.258 193.091l3.301 0.429c0.487-0.114 1.046-0.534 1.677-1.259 0.627-0.733 1.115-1.567 1.464-2.502v0c0.553-1.48 0.675-2.677 0.367-3.589-0.315-0.915-0.977-1.561-1.986-1.939v0c-0.7-0.261-1.392-0.269-2.077-0.024-0.685 0.245-1.376 0.689-2.075 1.332-0.699 0.642-1.613 1.596-2.741 2.861v0c-1.497 1.721-2.944 2.846-4.342 3.376-1.398 0.53-2.954 0.474-4.67-0.167v0c-1.146-0.428-2.018-1.145-2.615-2.153-0.598-1.007-0.913-2.204-0.945-3.592-0.032-1.388 0.229-2.822 0.781-4.303v0c0.447-1.195 0.93-2.207 1.452-3.036 0.515-0.831 0.964-1.485 1.347-1.963 0.389-0.476 0.642-0.794 0.76-0.955v0l4.831 1.804-0.889 2.379-3.168-0.305c-0.37 0.045-0.792 0.364-1.267 0.956-0.475 0.592-0.868 1.303-1.178 2.132v0c-0.437 1.171-0.529 2.209-0.275 3.116 0.252 0.913 0.821 1.535 1.707 1.866v0c0.78 0.292 1.492 0.342 2.134 0.151 0.649-0.188 1.238-0.508 1.767-0.96 0.525-0.46 1.179-1.105 1.962-1.935v0l0.607-0.662c1.114-1.243 2.1-2.222 2.961-2.938 0.86-0.716 1.825-1.22 2.894-1.513 1.071-0.299 2.22-0.219 3.447 0.239v0c1.92 0.717 3.174 2.036 3.762 3.957 0.58 1.925 0.385 4.184-0.584 6.78v0c-0.477 1.276-1.147 2.543-2.013 3.8-0.874 1.262-1.657 2.264-2.351 3.007v0l-4.989-1.863z" fill="#ffffff" data-fill-palette-color="primary"></path><path d="M3.227 143.752c0-6.522 5.287-11.809 11.809-11.809 6.522 0 11.809 5.287 11.809 11.809 0 6.522-5.287 11.809-11.809 11.809-6.522 0-11.809-5.287-11.809-11.809z" fill="#ffffff" data-fill-palette-color="primary"></path><path d="M253.155 143.752c0-6.522 5.287-11.809 11.809-11.809 6.522 0 11.809 5.287 11.809 11.809 0 6.522-5.287 11.809-11.809 11.809-6.522 0-11.809-5.287-11.809-11.809z" fill="#ffffff" data-fill-palette-color="primary"></path></g></svg></g></svg></g></svg></g></svg></g><defs></defs></svg><rect width="280" height="280" fill="none" stroke="none" visibility="hidden"></rect></g></svg></g></svg>