<!DOCTYPE svg PUBLIC "-//W3C//DTD SVG 1.1//EN" "http://www.w3.org/Graphics/SVG/1.1/DTD/svg11.dtd">
<!-- Uploaded to: SVG Repo, www.svgrepo.com, Transformed by: SVG Repo Mixer Tools -->
<svg fill="#ffffff" height="800px" width="800px" version="1.1" id="Layer_1" xmlns="http://www.w3.org/2000/svg" xmlns:xlink="http://www.w3.org/1999/xlink" viewBox="0 0 512.041 512.041" xml:space="preserve" stroke="#ffffff">
<g id="SVGRepo_bgCarrier" stroke-width="0"/>
<g id="SVGRepo_tracerCarrier" stroke-linecap="round" stroke-linejoin="round"/>
<g id="SVGRepo_iconCarrier"> <g> <g> <path d="M409.03,38.159c-11.935-3.028-22.696-7.724-32-13.93C338.736-1.292,292.1-0.074,290.467,0.041 c-46.839,0-99.769,19.297-121.935,37.173c-10.673,8.616-25.529,9.34-41.834,2.013c-12.085-5.42-12.765-12.676-12.782-12.676 c0.018-4.855-3.902-8.81-8.757-8.854c-1.501,0.035-16.252,0.256-30.023,13.921C59.864,46.765,52.122,71.783,52.14,105.398 c-1.563,23.887,7.998,68.899,53.274,78.142c-0.018,0.618-0.088,1.236-0.088,1.854l-0.238,80.472 c0,60.292,5.923,121.706,48.878,162.498c6.85,6.497,14.212,12.306,21.742,17.77v57.079c0,4.882,3.946,8.828,8.828,8.828 c4.873,0,8.828-3.946,8.828-8.828v-44.703c0.971,0.662,1.96,1.315,2.94,1.969l8.271,5.561c3.346,2.269,6.603,4.679,9.86,7.089 c14.133,10.452,28.751,21.257,49.302,21.257c0.044,0,0.079-0.009,0.124-0.009s0.079,0.009,0.124,0.009 c20.551,0,35.169-10.805,49.302-21.248c3.257-2.419,6.524-4.829,9.869-7.097l8.466-5.685c0.989-0.671,1.986-1.351,2.984-2.013 v44.871c0,4.882,3.946,8.828,8.828,8.828c4.873,0,8.828-3.946,8.828-8.828v-57.079c7.521-5.464,14.892-11.273,21.742-17.77 c43.14-40.96,49.108-102.727,49.117-163.39l34.931-139.776C469.702,60.819,427.656,42.89,409.03,38.159z M405.464,263.906v0.962 c0,56.761-5.288,114.291-43.617,150.678c-7.036,6.674-14.883,12.685-22.934,18.397c-0.194,0.115-0.406,0.177-0.583,0.3 c-5.5,3.902-11.105,7.645-16.702,11.388l-8.625,5.791c-3.54,2.401-7.009,4.961-10.461,7.512 c-12.341,9.128-24.002,17.735-38.682,17.788c-14.68-0.053-26.341-8.66-38.682-17.788c-3.452-2.551-6.921-5.111-10.461-7.512 l-8.572-5.756c-13.798-9.216-28.054-18.759-40.024-30.12c-40.024-37.985-43.379-97.174-43.379-149.654l0.238-80.472 c0-2.728,0.309-5.385,0.794-8.016c0.6-3.266,1.483-6.373,2.675-9.172c0.9-2.127,2.039-4.096,3.293-5.959 c0.362-0.547,0.777-1.042,1.165-1.563c0.989-1.307,2.057-2.542,3.213-3.699c0.468-0.468,0.927-0.953,1.421-1.395 c1.509-1.351,3.098-2.595,4.811-3.69c0.159-0.106,0.3-0.229,0.468-0.327c1.863-1.165,3.866-2.119,5.932-2.957 c0.627-0.256,1.28-0.459,1.916-0.68c1.527-0.539,3.099-0.98,4.696-1.342c0.724-0.159,1.439-0.327,2.172-0.441 c1.898-0.309,3.84-0.503,5.8-0.574c0.38-0.009,0.75-0.071,1.139-0.071c1.527-0.009,3.09,0.221,4.643,0.371 c1.059,0.106,2.101,0.097,3.16,0.282c2.613,0.45,5.226,1.13,7.821,2.066c13.462,4.873,39.336,10.681,86.122,10.681 c29.237,0,50.308-2.269,65.289-5.164c8.987-1.73,15.784-3.69,20.833-5.517c0.662-0.23,1.324-0.318,1.977-0.53 c16.022-4.988,32.6-0.697,42.779,10.187c2.807,3.001,5.235,6.374,6.894,10.311c2.304,5.447,3.469,11.229,3.469,17.196V263.906z"/> </g> </g> </g>
</svg>