<svg xmlns="http://www.w3.org/2000/svg" version="1.1" xmlns:xlink="http://www.w3.org/1999/xlink" xmlns:svgjs="http://svgjs.dev/svgjs" width="128" height="128" viewBox="0 0 128 128"><g transform="matrix(0.8046875,0,0,0.8046875,12.760752631578946,54.536615408188105)"><svg viewBox="0 0 95 18" data-background-color="#ffffff" preserveAspectRatio="xMidYMid meet" height="24" width="128" xmlns="http://www.w3.org/2000/svg" xmlns:xlink="http://www.w3.org/1999/xlink"><g id="tight-bounds" transform="matrix(1,0,0,1,-0.24049999999999727,-0.17975805035007397)"><svg viewBox="0 0 95.481 18.359516100700134" height="18.359516100700134" width="95.481"><g><svg viewBox="0 0 95.481 18.359516100700134" height="18.359516100700134" width="95.481"><g><svg viewBox="0 0 95.481 18.359516100700134" height="18.359516100700134" width="95.481"><g id="textblocktransform"><svg viewBox="0 0 95.481 18.359516100700134" height="18.359516100700134" width="95.481" id="textblock"><g><svg viewBox="0 0 95.481 18.359516100700134" height="18.359516100700134" width="95.481"><g><svg viewBox="0 0 95.481 18.359516100700134" height="18.359516100700134" width="95.481"><g><svg xmlns="http://www.w3.org/2000/svg" xmlns:xlink="http://www.w3.org/1999/xlink" version="1.1" x="0" y="0" viewBox="1.749 40.72209139980506 96.50200000000001 18.55583857259313" enable-background="new 0 0 100 100" xml:space="preserve" height="18.359516100700134" width="95.481" class="icon-icon-0" data-fill-palette-color="accent" id="icon-0"><path d="M46.245 44.189c-3.862-6.625-13.857-2.854-18.108 3.758C22.82 56.22 5.59 55.511 1.749 45.945c2.584 6.18 7.808 11.807 14.611 13.054 6.326 1.158 10.828-1.498 15.924-4.434 2.503-1.44 4.324-0.699 6.529-0.357 0.703 0.262 1.462 0.41 2.256 0.41 3.592 0 6.504-2.911 6.504-6.503C47.573 46.638 47.075 45.281 46.245 44.189z" fill="#ff7000" data-fill-palette-color="accent"></path><path d="M53.755 44.189c3.862-6.625 13.856-2.854 18.108 3.758 5.316 8.273 22.547 7.564 26.388-2.002C95.667 52.126 90.443 57.753 83.641 59c-6.326 1.159-10.828-1.498-15.925-4.433-2.503-1.441-4.323-0.701-6.528-0.358-0.703 0.262-1.463 0.411-2.256 0.411-3.593 0-6.505-2.912-6.505-6.504C52.427 46.638 52.925 45.281 53.755 44.189z" fill="#ff7000" data-fill-palette-color="accent"></path></svg></g></svg></g></svg></g></svg></g></svg></g></svg></g><defs></defs></svg><rect width="95.481" height="18.359516100700134" fill="none" stroke="none" visibility="hidden"></rect></g></svg></g></svg>